<mxfile host="app.diagrams.net" modified="2023-09-25T12:47:25.013Z" agent="Mozilla/5.0 (Windows NT 10.0; Win64; x64) AppleWebKit/537.36 (KHTML, like Gecko) Chrome/116.0.0.0 Safari/537.36" version="21.8.2" etag="mOr8JRushtIOMagH5pZI" type="github">
  <diagram name="PÃ¡gina-1" id="Yeq10reF4W1T3HCPSbJA">
    <mxGraphModel>
      <root>
        <mxCell id="0" />
        <mxCell id="1" parent="0" />
      </root>
    </mxGraphModel>
  </diagram>
</mxfile>
